<?xml version="1.0" ?><svg id="Layer_1" style="enable-background:new 0 0 64 64;" version="1.1" viewBox="0 0 64 64" xml:space="preserve" xmlns="http://www.w3.org/2000/svg" xmlns:xlink="http://www.w3.org/1999/xlink"><style type="text/css">
	.st0{fill:#DB2724;}
	.st1{fill:none;stroke:#6081C4;stroke-width:1.858;stroke-linecap:round;stroke-linejoin:round;stroke-miterlimit:10;}
	.st2{fill:none;stroke:#DB2724;stroke-linecap:round;stroke-linejoin:round;stroke-miterlimit:10;}
	.st3{opacity:0.15;}
	.st4{opacity:0.2;}
	.st5{fill:#FFFFFF;}
</style><circle class="st0" cx="32" cy="32" r="26.1"/><path class="st2" d="M52.1,12.7c4.8,5,7.8,11.8,7.8,19.3c0,15.4-12.5,27.9-27.9,27.9S4.1,47.4,4.1,32S16.6,4.1,32,4.1  c3.4,0,6.7,0.6,9.7,1.7"/><path class="st2" d="M45.5,7.6c1.2,0.6,2.3,1.4,3.3,2.2"/><circle class="st3" cx="32" cy="32" r="22.8"/><circle class="st3" cx="32" cy="32" r="17.5"/><g><g class="st4"><path d="M44.1,27.7c0,0-0.2-1.7-0.9-2.4c-0.9-1-1.9-1-2.4-1c-3.3-0.2-8.2-0.2-8.2-0.2h0c0,0-4.9,0-8.2,0.2c-0.5,0.1-1.5,0.1-2.4,1    c-0.7,0.7-0.9,2.4-0.9,2.4s-0.2,2-0.2,4v0.2v1.6c0,2,0.2,4,0.2,4s0.2,1.7,0.9,2.4c0.9,1,2.1,0.9,2.6,1c1.9,0.2,8,0.2,8,0.2    s4.9,0,8.2-0.3c0.5-0.1,1.5-0.1,2.4-1c0.7-0.7,0.9-2.4,0.9-2.4s0.2-2,0.2-4V32v-0.3C44.3,29.6,44.1,27.7,44.1,27.7z M36.5,32.3    l-6.3,3.4l0-5.3l0-1.6l2.9,1.6L36.5,32.3z"/></g><g><g><path class="st5" d="M43.5,27.1c0,0-0.2-1.7-0.9-2.4c-0.9-1-1.9-1-2.4-1c-3.3-0.2-8.2-0.2-8.2-0.2h0c0,0-4.9,0-8.2,0.2     c-0.5,0.1-1.5,0.1-2.4,1c-0.7,0.7-0.9,2.4-0.9,2.4s-0.2,2-0.2,4v0.2v1.6c0,2,0.2,4,0.2,4s0.2,1.7,0.9,2.4c0.9,1,2.1,0.9,2.6,1     c1.9,0.2,8,0.2,8,0.2s4.9,0,8.2-0.3c0.5-0.1,1.5-0.1,2.4-1c0.7-0.7,0.9-2.4,0.9-2.4s0.2-2,0.2-4v-1.5v-0.3     C43.8,29.1,43.5,27.1,43.5,27.1z M35.9,31.7l-6.3,3.4l0-5.3l0-1.6l2.9,1.6L35.9,31.7z"/></g></g></g></svg>